<?xml version="1.0" encoding="UTF-8"?>
<svg width="225px" height="52px" viewBox="0 0 225 52" version="1.1" xmlns="http://www.w3.org/2000/svg" xmlns:xlink="http://www.w3.org/1999/xlink">
    <!-- Generator: Sketch 60.1 (88133) - https://sketch.com -->
    <title>light</title>
    <desc>Created with Sketch.</desc>
    <g id="light" stroke="none" stroke-width="1" fill="none" fill-rule="evenodd">
        <g id="hack-logo" fill="#D9D9D9" fill-rule="nonzero">
            <g id="sword" transform="translate(0.000000, 17.000000)">
                <path d="M35.6760835,34.7809628 C35.0778378,34.5866496 34.5181887,33.9842788 34.5857326,33.5956524 C34.61468,33.4499175 34.6918729,33.294467 34.7497677,33.2556043 C34.8173115,33.2167417 35.3962589,33.1778791 36.0523993,33.1778791 C37.4322238,33.1778791 37.8471361,33.0418598 38.4743291,32.352048 C39.0918729,31.6719519 39.2173115,30.8655522 38.860294,29.8356923 L38.6480133,29.2527528 L38.9567852,28.99043 C39.1304694,28.8544107 39.4971361,28.6115193 39.7673115,28.4657844 C40.510294,28.0674424 41.0699431,27.4067775 41.7550308,26.1145949 C42.5655571,24.6086677 42.9997677,23.9771499 43.3567852,23.831415 C43.5208203,23.7634054 43.9357326,23.7051114 44.283101,23.7051114 C44.833101,23.7051114 44.9681887,23.743974 45.2769607,23.9771499 C45.9620484,24.5115111 46.0488905,24.9001375 45.537487,25.113882 C45.1997677,25.2499012 44.5725747,25.9008504 43.7523993,26.9598572 C43.4050308,27.4164932 43.0769607,27.8342665 43.028715,27.8925605 C42.7971361,28.1743146 41.8611712,29.6899574 41.6488905,30.1174464 C41.5138028,30.3894849 41.3111712,30.9044148 41.1953817,31.2736099 C40.6839782,32.9544189 39.8348554,33.9357005 38.3778378,34.5575026 C37.5480133,34.9072664 36.3708203,35.004423 35.6760835,34.7809628 Z" id="Path"></path>
                <path d="M16.5225747,34.2077389 C15.0366098,33.7802499 13.7918729,32.8183997 13.2611712,31.6913832 C13.087487,31.3027568 12.8848554,30.729533 12.8173115,30.4089162 C12.6725747,29.7093887 12.2576624,28.8446951 11.7173115,28.1257363 C11.4953817,27.8342665 10.9743291,27.0570138 10.5594168,26.396349 C9.66204837,24.9875784 9.2085396,24.4532172 8.56204837,24.0354438 L8.08924136,23.7245427 L8.3208203,23.4233573 C8.6585396,22.9667213 9.30503083,22.5100853 9.70064487,22.4323601 C10.4050308,22.2963408 11.0225747,22.8792804 11.4278378,24.0743065 C12.0453817,25.8619877 12.8076624,26.8335536 14.3515221,27.7856882 L15.133101,28.2714712 L15.0655571,28.8544107 C14.9497677,29.8648393 14.9980133,30.4769258 15.2295922,30.9432775 C15.7988905,32.0800096 16.1076624,32.2646071 17.6901185,32.3909107 C18.8962589,32.4880673 19.1857326,32.6143708 19.1857326,33.0321442 C19.1857326,33.3624766 18.7901185,33.8871222 18.3945045,34.0814354 C17.9120484,34.3243268 17.1208203,34.3729051 16.5225747,34.2077389 Z" id="Path"></path>
                <path d="M47.737487,32.5657925 C47.1681887,32.1771662 46.955908,31.4582074 47.4576624,31.5942266 C47.7181887,31.6622362 48.6155571,32.4783516 48.6155571,32.6532335 C48.6155571,32.866978 48.1041536,32.8183997 47.737487,32.5657925 Z" id="Path"></path>
                <path d="M48.9339782,31.7108145 C48.2295922,31.5067857 48.0366098,30.729533 48.4708203,29.7968297 C48.7699431,29.1361649 48.7699431,28.99043 48.4611712,28.6212349 L48.210294,28.3200495 L48.5769607,28.1645989 C49.1462589,27.9217075 50.2076624,28.1548833 50.6997677,28.6212349 C51.1532764,29.0487239 51.2401185,30.24375 50.8734519,30.9529931 C50.6611712,31.3804821 50.3909957,31.584511 49.8988905,31.7108145 C49.4357326,31.8371181 49.3585396,31.8371181 48.9339782,31.7108145 Z" id="Path"></path>
                <path d="M5.19450451,31.584511 C5.19450451,31.5165013 5.4839782,31.1764533 5.84099574,30.8461209 C6.44889048,30.272897 6.48748697,30.24375 6.57432908,30.4380632 C6.7094168,30.7392486 6.33310101,31.2541785 5.80239925,31.5165013 C5.31029399,31.7593928 5.19450451,31.7691085 5.19450451,31.584511 Z" id="Path"></path>
                <path d="M43.0190659,30.8461209 C42.5655571,30.7683956 42.4401185,30.6809547 42.4401185,30.4477788 C42.4401185,29.9425646 43.2216975,29.0778709 43.8392414,28.9127047 C44.4085396,28.7475385 47.2550308,28.6600976 47.583101,28.7961168 C47.7278378,28.8544107 47.8918729,29.0098613 47.9497677,29.1361649 C48.1041536,29.4762129 47.81468,30.1757404 47.3418729,30.612945 L46.9655571,30.9529931 L45.1611712,30.9335618 C44.1673115,30.9141305 43.2023993,30.8752678 43.0190659,30.8461209 Z" id="Path"></path>
                <path d="M3.9594168,30.5255041 C3.05239925,30.185456 2.64713609,29.5150756 2.71467995,28.4949314 C2.76292557,27.6982473 2.91731153,27.4456402 3.52520627,27.1541704 C4.03660978,26.9112789 5.09801329,26.823838 5.29099574,27.0181512 C5.55152206,27.280474 5.66731153,28.8738421 5.50327644,29.816261 C5.38748697,30.4574945 4.66380276,30.7878269 3.9594168,30.5255041 Z" id="Path"></path>
                <path d="M36.3611712,30.3992005 C33.5339782,29.8842706 29.7129256,28.6698132 26.5576624,27.2999053 C25.4480133,26.8141223 21.6655571,24.9390001 20.86468,24.4823641 C16.0690659,21.7134013 12.7304694,19.1678986 9.07345188,15.5050951 C8.21467995,14.6306858 7.15327644,13.5036693 6.72871504,12.9887394 C6.30415364,12.4640938 5.87959223,11.9588795 5.78310101,11.8422916 C5.68660978,11.7354194 5.13660978,10.9678823 4.55766241,10.1420513 C1.83660978,6.30436594 0.254153638,3.01075749 0.0225746903,0.708146284 C-0.0160218009,0.300088601 -0.00637267811,0.0474814638 0.0611711815,0.00861882738 C0.205908024,-0.0788221047 0.736609778,0.494401783 1.81731153,1.94203499 C3.16818873,3.73943193 5.83134662,6.76100191 8.61994311,9.65626833 C11.5822238,12.7361323 18.5585396,18.3226363 22.2155571,20.5378065 C26.3164343,23.0347309 31.1988905,24.9972941 37.8567852,26.823838 C38.7638028,27.0667295 39.6515221,27.3290523 39.8348554,27.4164932 C40.1532764,27.5525124 40.1629256,27.5622281 39.9892414,27.6982473 C39.7094168,27.9022762 38.8120484,28.2228929 38.1173115,28.3686278 C37.6638028,28.4657844 37.3453817,28.4755 36.9111712,28.4074904 C35.3480133,28.1548833 32.2313466,27.0278668 28.8348554,25.5025083 C28.2269607,25.2207542 27.3392414,24.8224122 26.8664343,24.6183834 C25.6216975,24.0548751 22.910294,22.6655359 21.6076624,21.9077145 C20.5462589,21.3053436 19.7839782,20.8001293 17.7866098,19.4205057 C16.7927501,18.7209783 16.6673115,18.6529687 16.7348554,18.8375662 C16.8120484,19.0513107 18.2883642,20.3046307 19.6681887,21.3344906 C21.5208203,22.7238298 27.2813466,25.5608023 32.0190659,27.4164932 C32.6269607,27.6593847 33.833101,28.135452 34.7015221,28.4755 C35.5699431,28.8155481 36.3032764,29.0973022 36.3322238,29.0973022 C36.3611712,29.0973022 36.6988905,29.2527528 37.0848554,29.447066 C37.8278378,29.816261 38.3585396,30.272897 38.2523993,30.4477788 C38.1655571,30.5935137 37.2585396,30.5643667 36.3611712,30.3992005 Z" id="Path"></path>
                <path d="M6.48748697,29.2624684 C6.02432908,28.4560687 5.92783785,28.1937459 6.01467995,27.9411388 C6.25590802,27.1833174 9.80678522,27.4067775 10.7523993,28.2423242 C11.3892414,28.8058324 11.5918729,29.6025165 11.1383642,29.7191044 C10.9357326,29.7676827 7.67432908,29.9717115 7.07608346,29.9717115 C6.94099574,29.9717115 6.76731153,29.7676827 6.48748697,29.2624684 Z" id="Path"></path>
                <path d="M15.6155571,29.8259767 C15.5094168,29.6996731 15.5383642,29.6219478 15.7699431,29.3790563 C16.0980133,29.0292926 16.2427501,28.961283 17.9409957,28.3880591 C20.2953817,27.5913751 23.2576624,26.765544 23.7594168,26.765544 C23.9813466,26.765544 25.6506449,27.4359245 25.8243291,27.5913751 C25.9208203,27.678816 25.81468,27.7662569 25.2936273,27.9994327 C24.405908,28.3977748 23.6436273,28.6309506 21.6752063,29.0875866 C18.2883642,29.8648393 15.8953817,30.1563091 15.6155571,29.8259767 Z" id="Path"></path>
                <path d="M15.6927501,27.7273943 C15.2585396,27.6302377 14.2067852,27.1055921 14.1199431,26.9501416 C13.9945045,26.7558284 14.3225747,26.5615152 15.1909957,26.3283394 C16.0690659,26.0951636 16.2234519,26.0660166 19.1857326,25.4150674 L20.8743291,25.055588 L21.5594168,25.4733614 C21.9453817,25.7065372 22.283101,25.9591443 22.3120484,26.0368696 C22.4085396,26.2991924 21.8488905,26.5615152 20.1409957,27.0472981 C17.6804694,27.7565413 16.5322238,27.9314231 15.6927501,27.7273943 Z" id="Path"></path>
                <path d="M32.5980133,24.6378147 C32.41468,24.5892364 32.0094168,24.4435015 31.7006449,24.3074823 C31.1988905,24.0743065 31.1506449,24.0354438 31.2471361,23.860562 C31.2953817,23.7536897 31.9322238,23.3067694 32.655908,22.8598491 C35.3962589,21.17904 37.1909957,20.0423079 37.4032764,19.8382791 C37.5866098,19.6731129 37.6927501,19.3816431 37.5769607,19.3816431 C37.4418729,19.3816431 36.3322238,19.954867 35.3962589,20.4989439 C32.2023993,22.3837818 30.1181887,23.4622199 29.6936273,23.4622199 C29.3655571,23.4622199 28.6322238,23.1513188 28.4585396,22.9375743 C28.3813466,22.8501334 28.3427501,22.7626925 28.3620484,22.7529768 C28.6611712,22.5295167 29.6936273,21.9465771 31.1023993,21.208187 C33.1480133,20.1297489 33.8716975,19.7314068 34.3348554,19.4302214 C34.5181887,19.3136335 35.0392414,18.9833011 35.4927501,18.701547 C37.0945045,17.6814028 41.5041536,14.4363726 43.0866098,13.115043 C43.4436273,12.8041419 43.96468,12.3766529 44.2252063,12.1629084 C44.9778378,11.5411062 48.287487,8.16977249 49.1945045,7.10104998 C49.6480133,6.57640439 50.2366098,5.89630825 50.4971361,5.59512282 C50.7673115,5.29393739 51.1532764,4.82758575 51.3655571,4.56526295 C51.5778378,4.30294016 51.905908,3.91431379 52.0892414,3.70056929 C52.2822238,3.47710913 52.6971361,2.97189486 53.005908,2.57355283 C54.0094168,1.31051715 54.733101,0.53326442 54.9260835,0.53326442 C55.0804694,0.53326442 54.9164343,1.52426165 54.6173115,2.43753361 C53.3339782,6.35294423 50.4295922,11.2399208 47.8532764,13.8340018 C45.933101,15.7577023 43.1734519,18.2934893 42.0541536,19.1484673 C41.7164343,19.4107901 41.3690659,19.6828285 41.3015221,19.7411225 C41.0892414,19.9451513 36.4673115,23.0152996 35.637487,23.5107982 C33.8716975,24.5600894 33.2734519,24.7835496 32.5980133,24.6378147 Z" id="Path"></path>
            </g>
            <g id="apple-logo" transform="translate(13.000000, 0.000000)">
                <path d="M20.0529525,33.8363541 C19.7624418,33.7581875 18.852175,33.4748337 18.0290615,33.2012507 C16.2182117,32.6052306 15.182057,32.4391267 14.2621066,32.6052306 C13.9038101,32.6736264 12.8773391,32.966751 11.9670723,33.2598757 C10.1465388,33.8558957 9.2265884,33.9926872 8.32600535,33.8070416 C7.14459532,33.5530003 5.76951151,32.419585 4.34600926,30.504504 C2.26401617,27.7002783 0.879248679,24.5833864 0.230441531,21.2417655 C0.027084067,20.1572043 -0.0310180656,17.0891664 0.143288332,16.0436885 C0.288543664,15.1838563 0.666207526,13.9234203 0.995452945,13.1906087 C1.56679058,11.9301728 2.78693537,10.4352371 3.94897802,9.55586322 C4.6558873,9.01846805 5.84698102,8.44198959 6.73788039,8.18794824 C7.79340247,7.8948236 9.71077284,7.95344853 10.9987035,8.31496891 C14.7656584,9.37998843 15.2788939,9.39953008 17.7288671,8.63740602 C21.2343625,7.53330321 23.7327542,7.77757374 26.0374721,9.43861336 C26.850902,10.0248626 27.8967404,11.0703405 27.8967404,11.2950694 C27.8967404,11.3927776 27.7127503,11.5784232 27.4997091,11.7152147 C26.3764012,12.3991722 25.0013174,14.1676909 24.6042862,15.4281268 C24.3815613,16.1120843 24.2847245,17.8415197 24.391245,19.0628723 C24.4687145,19.8640797 24.5365004,20.1278918 24.8657458,20.8216202 C25.6404409,22.4533473 26.7540651,23.6551583 28.1582,24.3879699 C28.5552312,24.5931572 28.903844,24.8081152 28.9328951,24.876511 C28.9909972,25.0230733 27.6933829,27.5732577 27.0639431,28.540569 C26.134309,29.9964213 25.8922168,30.3188584 25.2821444,31.05167 C23.80054,32.8104179 22.6288137,33.6507085 21.3408831,33.894979 C20.6823922,34.0122289 20.721127,34.0122289 20.0529525,33.8363541 Z" id="Path"></path>
                <path d="M13.8069732,7.68963635 C14.029698,5.45211828 14.3976782,4.44572368 15.5597209,2.91170474 C16.6152429,1.5144773 19.4041453,-0.0879373916 20.6049227,0.00977082128 L20.9632192,0.0390832851 L20.9438518,0.527624349 C20.8373312,2.23751807 20.4984021,3.45887073 19.7624418,4.64114011 C19.1814205,5.58890977 18.6488176,6.17515905 17.825704,6.80049161 C16.770182,7.59192814 15.8792826,7.93390688 14.1168512,8.24657316 L13.7488711,8.30519809 L13.8069732,7.68963635 Z" id="Path"></path>
            </g>
            <path d="M70.5505804,43 L70.5505804,28.3333333 L84.4494196,28.3333333 L84.4494196,43 L92,43 L92,9 L84.4494196,9 L84.4494196,22.047619 L70.5505804,22.047619 L70.5505804,9 L63,9 L63,43 L70.5505804,43 Z M105.380952,44 C106.904762,44 108.396825,43.7769608 109.857143,43.3308824 C111.31746,42.8848039 112.587302,42.1041667 113.666667,40.9889706 C113.698413,41.4031863 113.753968,41.8094363 113.833333,42.2077206 C113.912698,42.6060049 114.015873,42.9963235 114.142857,43.3786765 L114.142857,43.3786765 L121,43.3786765 C120.68254,42.8688725 120.460317,42.1041667 120.333333,41.0845588 C120.206349,40.064951 120.142857,38.997549 120.142857,37.8823529 L120.142857,37.8823529 L120.142857,25.0257353 C120.142857,23.5281863 119.809524,22.3253676 119.142857,21.4172794 C118.47619,20.5091912 117.619048,19.8002451 116.571429,19.2904412 C115.52381,18.7806373 114.365079,18.4381127 113.095238,18.2628676 C111.825397,18.0876225 110.571429,18 109.333333,18 C107.968254,18 106.611111,18.1354167 105.261905,18.40625 C103.912698,18.6770833 102.698413,19.1311275 101.619048,19.7683824 C100.539683,20.4056373 99.6507937,21.25 98.952381,22.3014706 C98.2539683,23.3529412 97.8571429,24.6752451 97.7619048,26.2683824 L97.7619048,26.2683824 L104.52381,26.2683824 C104.650794,24.9301471 105.095238,23.9742647 105.857143,23.4007353 C106.619048,22.8272059 107.666667,22.5404412 109,22.5404412 C109.603175,22.5404412 110.166667,22.5802696 110.690476,22.6599265 C111.214286,22.7395833 111.674603,22.8988971 112.071429,23.1378676 C112.468254,23.3768382 112.785714,23.7113971 113.02381,24.1415441 C113.261905,24.5716912 113.380952,25.1531863 113.380952,25.8860294 C113.412698,26.5870098 113.206349,27.1207108 112.761905,27.4871324 C112.31746,27.8535539 111.714286,28.1323529 110.952381,28.3235294 C110.190476,28.5147059 109.31746,28.6580882 108.333333,28.7536765 C107.349206,28.8492647 106.349206,28.9767157 105.333333,29.1360294 C104.31746,29.2953431 103.309524,29.5104167 102.309524,29.78125 C101.309524,30.0520833 100.420635,30.4583333 99.6428571,31 C98.8650794,31.5416667 98.2301587,32.2665441 97.7380952,33.1746324 C97.2460317,34.0827206 97,35.2377451 97,36.6397059 C97,37.9142157 97.2142857,39.0134804 97.6428571,39.9375 C98.0714286,40.8615196 98.6666667,41.6262255 99.4285714,42.2316176 C100.190476,42.8370098 101.079365,43.2830882 102.095238,43.5698529 C103.111111,43.8566176 104.206349,44 105.380952,44 Z M108.306931,39 C107.745875,39 107.20132,38.9534884 106.673267,38.8604651 C106.145215,38.7674419 105.683168,38.6046512 105.287129,38.372093 C104.891089,38.1395349 104.577558,37.8217054 104.346535,37.4186047 C104.115512,37.0155039 104,36.5193798 104,35.9302326 C104,35.3100775 104.115512,34.7984496 104.346535,34.3953488 C104.577558,33.9922481 104.882838,33.6589147 105.262376,33.3953488 C105.641914,33.1317829 106.087459,32.9224806 106.59901,32.7674419 C107.110561,32.6124031 107.630363,32.4883721 108.158416,32.3953488 C108.719472,32.3023256 109.280528,32.2248062 109.841584,32.1627907 C110.40264,32.1007752 110.938944,32.0232558 111.450495,31.9302326 C111.962046,31.8372093 112.440594,31.7209302 112.886139,31.5813953 C113.331683,31.4418605 113.70297,31.248062 114,31 L114,31 L114,33.4651163 C114,33.8372093 113.958746,34.3333333 113.876238,34.9534884 C113.793729,35.5736434 113.570957,36.1860465 113.207921,36.7906977 C112.844884,37.3953488 112.283828,37.9147287 111.524752,38.3488372 C110.765677,38.7829457 109.693069,39 108.306931,39 Z M137.794118,44 C141.160131,44 143.921569,43.1397059 146.078431,41.4191176 C148.235294,39.6985294 149.542484,37.1973039 150,33.9154412 L143.284314,33.9154412 C143.055556,35.4448529 142.49183,36.6636029 141.593137,37.5716912 C140.694444,38.4797794 139.411765,38.9338235 137.745098,38.9338235 C136.666667,38.9338235 135.751634,38.6948529 135,38.2169118 C134.248366,37.7389706 133.651961,37.1256127 133.210784,36.3768382 C132.769608,35.6280637 132.45098,34.7916667 132.254902,33.8676471 C132.058824,32.9436275 131.960784,32.0355392 131.960784,31.1433824 C131.960784,30.2193627 132.058824,29.2873775 132.254902,28.3474265 C132.45098,27.4074755 132.785948,26.5471814 133.259804,25.7665441 C133.73366,24.9859069 134.346405,24.348652 135.098039,23.8547794 C135.849673,23.3609069 136.781046,23.1139706 137.892157,23.1139706 C140.866013,23.1139706 142.581699,24.5318627 143.039216,27.3676471 L149.852941,27.3676471 C149.754902,25.7745098 149.362745,24.3964461 148.676471,23.2334559 C147.990196,22.0704657 147.099673,21.098652 146.004902,20.3180147 C144.910131,19.5373775 143.668301,18.9558824 142.279412,18.5735294 C140.890523,18.1911765 139.444444,18 137.941176,18 C135.882353,18 134.052288,18.3345588 132.45098,19.0036765 C130.849673,19.6727941 129.493464,20.6047794 128.382353,21.7996324 C127.271242,22.9944853 126.429739,24.4123775 125.857843,26.0533088 C125.285948,27.6942402 125,29.4705882 125,31.3823529 C125,33.2303922 125.310458,34.9270833 125.931373,36.4724265 C126.552288,38.0177696 127.418301,39.3480392 128.529412,40.4632353 C129.640523,41.5784314 130.988562,42.4466912 132.573529,43.0680147 C134.158497,43.6893382 135.898693,44 137.794118,44 Z M160.947162,43 L160.947162,34.5238095 L163.637965,32 L170.585127,43 L179,43 L168.383562,27.4285714 L177.923679,18.3809524 L169.704501,18.3809524 L160.947162,27.2380952 L160.947162,9 L154,9 L154,43 L160.947162,43 Z M188,15 L188,9 L181,9 L181,15 L188,15 Z M188,43 L188,18 L181,18 L181,43 L188,43 Z M204.793453,44 C207.636442,44 210.059444,43.3627451 212.06246,42.0882353 C214.065475,40.8137255 215.551583,38.6948529 216.520784,35.7316176 L210.463278,35.7316176 C210.237131,36.4963235 209.623304,37.221201 208.621796,37.90625 C207.620289,38.591299 206.424941,38.9338235 205.035753,38.9338235 C203.097351,38.9338235 201.611243,38.439951 200.577428,37.4522059 C199.543614,36.4644608 198.978247,34.8713235 198.881327,32.6727941 L216.956924,32.6727941 C217.086151,30.7610294 216.924618,28.9289216 216.472324,27.1764706 C216.02003,25.4240196 215.285053,23.8627451 214.267392,22.4926471 C213.249731,21.122549 211.949386,20.03125 210.366358,19.21875 C208.78333,18.40625 206.925695,18 204.793453,18 C202.887357,18 201.150872,18.3345588 199.583997,19.0036765 C198.017123,19.6727941 196.668318,20.588848 195.537583,21.7518382 C194.406849,22.9148284 193.534568,24.2928922 192.920741,25.8860294 C192.306914,27.4791667 192,29.1997549 192,31.0477941 C192,32.9595588 192.298837,34.7120098 192.896511,36.3051471 C193.494185,37.8982843 194.342236,39.2683824 195.440663,40.4154412 C196.539091,41.5625 197.879819,42.4466912 199.462847,43.0680147 C201.045876,43.6893382 202.822744,44 204.793453,44 Z M210,28 L199,28 C199.031746,27.5454545 199.134921,27.030303 199.309524,26.4545455 C199.484127,25.8787879 199.785714,25.3333333 200.214286,24.8181818 C200.642857,24.3030303 201.214286,23.8712121 201.928571,23.5227273 C202.642857,23.1742424 203.539683,23 204.619048,23 C206.269841,23 207.5,23.4242424 208.309524,24.2727273 C209.119048,25.1212121 209.68254,26.3636364 210,28 Z" id="Hackie"></path>
        </g>
    </g>
</svg>